<svg width="44" height="37" viewBox="0 0 44 37" fill="none" xmlns="http://www.w3.org/2000/svg">
<path d="M1.65128 30L1.65128 8.18182H10.7493C12.3828 8.18182 13.75 8.41264 14.8509 8.87429C15.9588 9.33594 16.7898 9.98224 17.3438 10.8132C17.9048 11.6442 18.1854 12.6065 18.1854 13.7003C18.1854 14.5312 18.0114 15.2734 17.6634 15.9268C17.3153 16.5732 16.8359 17.1094 16.2251 17.5355C15.6143 17.9616 14.9077 18.2599 14.1051 18.4304V18.6435C14.9858 18.6861 15.799 18.924 16.5447 19.3572C17.2976 19.7905 17.9013 20.3942 18.3558 21.1683C18.8104 21.9354 19.0376 22.8445 19.0376 23.8956C19.0376 25.0675 18.7393 26.1151 18.1428 27.0384C17.5462 27.9545 16.6832 28.679 15.554 29.2116C14.4247 29.7372 13.054 30 11.4418 30H1.65128ZM6.92472 25.7493H10.1847C11.3281 25.7493 12.1697 25.5327 12.7095 25.0994C13.2564 24.6662 13.5298 24.0625 13.5298 23.2884C13.5298 22.7273 13.3984 22.2443 13.1357 21.8395C12.8729 21.4276 12.5 21.1115 12.017 20.8913C11.5341 20.6641 10.9553 20.5504 10.2805 20.5504H6.92472V25.7493ZM6.92472 17.152H9.84375C10.419 17.152 10.9304 17.0561 11.3778 16.8643C11.8253 16.6726 12.1733 16.3956 12.4219 16.0334C12.6776 15.6712 12.8054 15.2344 12.8054 14.723C12.8054 13.9915 12.5462 13.4162 12.0277 12.9972C11.5092 12.5781 10.8097 12.3686 9.92898 12.3686H6.92472V17.152Z" fill="black"/>
<path d="M20.8512 30.1169L14.6304 9.2044L19.685 7.70083L22.3155 16.5437L22.5912 16.4617L26.8737 5.56243L32.8268 3.79156L28.1897 15.3298L39.1804 24.6646L33.1353 26.4628L25.4824 19.7919L24.22 22.9462L25.9058 28.6134L20.8512 30.1169Z" fill="#D74F4F"/>
</svg>
